<?xml version="1.0" encoding="utf-8"?>
<!-- Generator: Adobe Illustrator 15.1.0, SVG Export Plug-In . SVG Version: 6.00 Build 0)  -->
<!DOCTYPE svg PUBLIC "-//W3C//DTD SVG 1.1//EN" "http://www.w3.org/Graphics/SVG/1.1/DTD/svg11.dtd">
<svg version="1.1" id="Ebene_1" xmlns="http://www.w3.org/2000/svg" xmlns:xlink="http://www.w3.org/1999/xlink" x="0px" y="0px"
	 width="440px" height="260px" viewBox="0 0 440 260" enable-background="new 0 0 440 260" xml:space="preserve">
<path fill="#00D8CD" d="M294.461,156.283c0.462,0.009,0.904,0.023,1.33,0.043c10.078,0.47,10.855,3.947,22.385,3.947
	c12.363,0,12.363-4,24.729-4c12.361,0,12.361,4,24.726,4s12.359-4,24.726-4h0.274l-0.68,1.275l-37.904,71.287
	c-0.289,0.545-0.965,0.751-1.51,0.462l-74.978-39.862c-0.545-0.289-0.752-0.971-0.463-1.514l15.844-29.796l0.985-1.854
	L294.461,156.283z"/>
<path fill="#00D8CD" d="M146.095,156.273l0.985,1.854l15.844,29.796c0.289,0.543,0.082,1.224-0.463,1.513L87.486,229.3
	c-0.545,0.289-1.221,0.083-1.51-0.462l-37.904-71.287l-0.68-1.277h0.277c12.361,0,12.361,4,24.723,4c12.362,0,12.361-4,24.724-4
	c12.364,0,12.364,4,24.728,4c11.529,0,12.307-3.479,22.385-3.945c0.426-0.021,0.868-0.034,1.33-0.043L146.095,156.273z"/>
<path fill="#00D8CD" d="M176.585,122.994c8.597,0,8.597,3,17.193,3c8.601,0,8.601-3,17.2-3c8.601,0,8.601,3,17.2,3
	c8.602,0,8.602-3,17.203-3s8.602,3,17.203,3h1.15v1.177v60.011c0,0.615-0.502,1.117-1.119,1.117h-84.913
	c-0.617,0-1.118-0.5-1.118-1.117L176.585,122.994L176.585,122.994z"/>
<g>
	<path fill="none" stroke="#DDDDDD" stroke-width="2" stroke-linecap="round" stroke-linejoin="round" stroke-miterlimit="10" d="
		M269.881,51.687V22.521c0-8.02-6.506-14.521-14.525-14.521h-70.389c-8.023,0-14.526,6.5-14.526,14.521v175.426
		c0,8.02,6.505,14.521,14.526,14.521h70.389c8.021,0,14.525-6.5,14.525-14.521V66.548c-0.137-0.102-0.225-0.263-0.225-0.444V52.13
		C269.656,51.948,269.744,51.787,269.881,51.687z M263.734,186.21c0,0.615-0.5,1.117-1.117,1.117h-84.914
		c-0.617,0-1.117-0.5-1.117-1.117V33.14c0-0.615,0.5-1.117,1.117-1.117h84.914c0.617,0,1.117,0.5,1.117,1.117V186.21z"/>
	<path fill="none" stroke="#DDDDDD" stroke-width="2" stroke-linecap="round" stroke-linejoin="round" stroke-miterlimit="10" d="
		M204.518,22.525c0.926,0,1.677-0.751,1.677-1.677c0-0.925-0.751-1.676-1.677-1.676c-0.925,0-1.676,0.751-1.676,1.676
		C202.842,21.774,203.593,22.525,204.518,22.525L204.518,22.525z"/>
	<path fill="none" stroke="#DDDDDD" stroke-width="2" stroke-linecap="round" stroke-linejoin="round" stroke-miterlimit="10" d="
		M169.881,51.852v15.365 M170.161,33.944v7.887 M169.881,70.016v15.59"/>
	<path fill="none" stroke="#DDDDDD" stroke-width="2" stroke-linecap="round" stroke-linejoin="round" stroke-miterlimit="10" d="
		M220.16,15.263c0.617,0,1.117-0.501,1.117-1.117c0-0.617-0.5-1.117-1.117-1.117s-1.117,0.5-1.117,1.117
		C219.043,14.762,219.543,15.263,220.16,15.263L220.16,15.263z"/>
	<path fill="none" stroke="#DDDDDD" stroke-width="2" stroke-linecap="round" stroke-linejoin="round" stroke-miterlimit="10" d="
		M220.16,206.88c4.32,0,7.82-3.501,7.82-7.821c0-4.316-3.5-7.82-7.82-7.82c-4.319,0-7.82,3.504-7.82,7.82
		C212.34,203.379,215.841,206.88,220.16,206.88L220.16,206.88z"/>
	<path fill="none" stroke="#DDDDDD" stroke-width="2" stroke-linecap="round" stroke-linejoin="round" stroke-miterlimit="10" d="
		M212.893,19.731c-0.613,0-1.111,0.496-1.111,1.117l0,0c0,0.617,0.501,1.117,1.111,1.117h14.535c0.614,0,1.112-0.495,1.112-1.117
		l0,0c0-0.616-0.501-1.117-1.112-1.117H212.893L212.893,19.731z"/>
</g>
<g>
	<g>
		<path fill="none" stroke="#A0A0A0" stroke-width="2" stroke-miterlimit="10" d="M118.751,57.204
			c5.258-14.236,20.408-22.292,35.15-18.691"/>
		<g>
			<polygon fill="#A0A0A0" points="126.945,54.874 126.284,53.416 119.102,56.681 116.37,49.279 114.868,49.835 118.198,58.849 			
				"/>
		</g>
		<g>
			<polygon fill="#A0A0A0" points="147.389,44.004 146.549,42.64 153.272,38.513 148.665,32.108 149.965,31.174 155.576,38.975 			
				"/>
		</g>
	</g>
</g>
<g>
	<g>
		<path fill="none" stroke="#A0A0A0" stroke-width="2" stroke-miterlimit="10" d="M321.018,57.204
			c-5.259-14.236-20.408-22.292-35.148-18.691"/>
		<g>
			<polygon fill="#A0A0A0" points="324.9,49.835 323.398,49.279 320.668,56.68 313.484,53.415 312.824,54.874 321.572,58.848 			"/>
		</g>
		<g>
			<polygon fill="#A0A0A0" points="289.802,31.172 291.104,32.106 286.494,38.51 293.218,42.639 292.379,44.002 284.191,38.972 			
				"/>
		</g>
	</g>
</g>
<ellipse fill="#FFFFFF" cx="168.626" cy="201.383" rx="5.959" ry="12.084"/>
<ellipse fill="#FFFFFF" cx="271.006" cy="201.383" rx="5.959" ry="12.084"/>
<g>
	<path fill="none" stroke="#A0A0A0" stroke-width="2" stroke-miterlimit="10" d="M105.195,66.262L91.503,40.51
		c-3.765-7.081-12.562-9.766-19.644-6.001L9.711,67.554c-7.084,3.767-9.774,12.56-6.009,19.641L86.06,242.086
		c3.765,7.081,12.561,9.768,19.644,6.001l62.148-33.045c7.083-3.767,9.774-12.56,6.009-19.642L112.173,79.384
		c-0.169-0.025-0.321-0.127-0.407-0.287l-6.561-12.338C105.12,66.599,105.122,66.415,105.195,66.262z M162.924,187.925
		c0.289,0.543,0.082,1.222-0.463,1.511l-74.975,39.865c-0.545,0.289-1.221,0.083-1.51-0.462L14.113,93.686
		c-0.288-0.543-0.082-1.221,0.463-1.511L89.551,52.31c0.545-0.29,1.222-0.083,1.512,0.462L162.924,187.925z"/>
	<path fill="none" stroke="#A0A0A0" stroke-width="2" stroke-miterlimit="10" d="M33.793,71.201
		c0.817-0.436,1.128-1.451,0.693-2.268s-1.45-1.128-2.268-0.693c-0.816,0.434-1.127,1.449-0.692,2.267
		C31.961,71.325,32.977,71.635,33.793,71.201L33.793,71.201z"/>
	<path fill="none" stroke="#A0A0A0" stroke-width="2" stroke-linecap="square" stroke-miterlimit="10" d="M16.979,113.355
		l7.213,13.566 M8.818,97.412l3.703,6.964 M25.506,129.393l7.318,13.766"/>
	<path fill="none" stroke="#A0A0A0" stroke-width="2" stroke-miterlimit="10" d="M44.195,57.444c0.545-0.29,0.751-0.967,0.461-1.511
		c-0.289-0.545-0.966-0.752-1.511-0.463c-0.545,0.29-0.751,0.967-0.462,1.512C42.974,57.526,43.65,57.734,44.195,57.444
		L44.195,57.444z"/>
	<path fill="none" stroke="#A0A0A0" stroke-width="2" stroke-miterlimit="10" d="M134.154,226.633
		c3.814-2.029,5.262-6.764,3.233-10.578c-2.029-3.812-6.763-5.263-10.577-3.234c-3.814,2.027-5.262,6.767-3.233,10.578
		C125.606,227.213,130.34,228.66,134.154,226.633L134.154,226.633z"/>
	<path fill="none" stroke="#A0A0A0" stroke-width="2" stroke-miterlimit="10" d="M39.876,64.802
		c-0.542,0.288-0.748,0.96-0.457,1.509l0,0c0.29,0.545,0.967,0.751,1.506,0.464l12.834-6.823c0.542-0.289,0.749-0.959,0.457-1.509
		l0,0c-0.289-0.544-0.967-0.752-1.506-0.465L39.876,64.802L39.876,64.802z"/>
</g>
<g>
	<path fill="none" stroke="#A0A0A0" stroke-width="2" stroke-miterlimit="10" d="M335.092,66.618l-6.561,12.338
		c-0.086,0.16-0.238,0.262-0.407,0.287l-61.688,116.018c-3.766,7.082-1.074,15.874,6.01,19.642l62.147,33.045
		c7.083,3.769,15.88,1.08,19.644-6.002l82.357-154.889c3.769-7.081,1.075-15.874-6.009-19.641L368.438,34.37
		c-7.082-3.765-15.879-1.08-19.645,6.001l-13.691,25.752C335.175,66.274,335.177,66.458,335.092,66.618z M349.234,52.631
		c0.289-0.545,0.967-0.752,1.512-0.462l74.975,39.865c0.545,0.29,0.751,0.968,0.463,1.511L354.32,228.698
		c-0.289,0.545-0.965,0.751-1.51,0.462l-74.978-39.865c-0.545-0.289-0.752-0.968-0.463-1.511L349.234,52.631z"/>
	<path fill="none" stroke="#A0A0A0" stroke-width="2" stroke-miterlimit="10" d="M406.504,71.061
		c0.816,0.434,1.832,0.123,2.268-0.694c0.437-0.817,0.123-1.833-0.69-2.267c-0.815-0.435-1.833-0.124-2.271,0.693
		C405.376,69.609,405.688,70.625,406.504,71.061L406.504,71.061z"/>
	<path fill="none" stroke="#A0A0A0" stroke-width="2" stroke-linecap="square" stroke-miterlimit="10" d="M416.105,126.781
		l7.213-13.566 M427.775,104.235l3.7-6.964 M407.473,143.018l7.318-13.766"/>
	<path fill="none" stroke="#A0A0A0" stroke-width="2" stroke-miterlimit="10" d="M396.102,57.304
		c0.545,0.29,1.225,0.082,1.512-0.462c0.289-0.545,0.086-1.222-0.461-1.512c-0.545-0.289-1.223-0.082-1.512,0.463
		C395.352,56.337,395.557,57.014,396.102,57.304L396.102,57.304z"/>
	<path fill="none" stroke="#A0A0A0" stroke-width="2" stroke-miterlimit="10" d="M306.143,226.492
		c3.814,2.027,8.549,0.58,10.578-3.234c2.027-3.814,0.58-8.551-3.234-10.578c-3.812-2.027-8.549-0.58-10.574,3.234
		C300.882,219.729,302.328,224.463,306.143,226.492L306.143,226.492z"/>
	<path fill="none" stroke="#A0A0A0" stroke-width="2" stroke-miterlimit="10" d="M400.421,64.661l-12.834-6.824
		c-0.539-0.287-1.217-0.079-1.506,0.465l0,0c-0.292,0.55-0.085,1.22,0.457,1.509l12.834,6.823c0.539,0.287,1.216,0.081,1.506-0.464
		l0,0C401.169,65.621,400.963,64.949,400.421,64.661L400.421,64.661z"/>
</g>
</svg>
